<svg width="320" height="320" viewBox="0 0 320 320" fill="none" xmlns="http://www.w3.org/2000/svg">
<path d="M0 0C105.6 0 211.2 0 320 0C320 105.6 320 211.2 320 320C214.4 320 108.8 320 0 320C0 214.4 0 108.8 0 0Z" fill="#020202"/>
<path d="M159.583 64.6667C159.858 64.6667 160.133 64.6667 160.417 64.6667C160.503 64.9814 160.59 65.2962 160.679 65.6205C161.57 68.8047 162.534 71.96 163.542 75.1094C163.734 75.7107 163.734 75.7107 163.93 76.3241C164.286 77.4384 164.643 78.5525 165 79.6667C166.261 83.6116 167.377 87.5924 168.476 91.5849C169.034 93.5979 169.601 95.6005 170.264 97.5817C170.416 98.0379 170.416 98.0379 170.571 98.5033C170.839 99.2947 171.117 100.083 171.395 100.871C171.708 102.362 171.579 102.941 170.833 104.25C168.914 106.307 168.914 106.307 167.522 106.371C166.681 106.358 165.841 106.346 165 106.333C165.04 106.726 165.079 107.119 165.12 107.523C166.123 117.527 166.972 127.539 167.747 137.563C168.619 148.836 169.674 160.086 170.833 171.333C171.878 171.147 172.922 170.959 173.966 170.769C174.258 170.717 174.549 170.665 174.849 170.612C180.87 169.508 189.74 167.01 194.167 162.583C194.211 161.606 194.225 160.643 194.219 159.665C194.218 159.353 194.217 159.041 194.215 158.719C194.183 154.647 193.987 150.58 193.81 146.512C193.425 137.557 193.209 128.629 193.333 119.667C192.951 119.585 192.951 119.585 192.56 119.502C191.296 119.145 190.771 118.639 190 117.583C190.088 115.177 191.258 113.345 192.422 111.307C192.626 110.944 192.83 110.58 193.04 110.205C193.69 109.051 194.345 107.901 195 106.75C195.414 106.017 195.827 105.284 196.24 104.551C198.363 100.798 200.53 97.0706 202.734 93.3646C202.943 93.0115 203.152 92.6583 203.367 92.2945C203.66 91.8042 203.66 91.8042 203.96 91.3041C204.217 90.8737 204.217 90.8737 204.478 90.4347C205.003 89.6615 205.582 89.0669 206.25 88.4167C206.249 88.8131 206.247 89.2096 206.246 89.618C206.2 106.751 206.164 123.845 208.073 140.891C208.105 141.177 208.137 141.463 208.17 141.758C208.607 145.648 209.09 149.533 209.583 153.417C209.825 155.33 210.062 157.245 210.298 159.159C210.378 159.782 210.378 159.782 210.459 160.418C210.875 163.793 210.97 167.102 210.833 170.5C201.41 175.5 191.972 180.5 182.31 185.023C180.447 185.896 178.607 186.812 176.771 187.74C170.459 190.917 170.459 190.917 168.75 190.917C168.841 192.492 168.917 193.523 169.922 194.771C171.915 195.865 174.036 196.284 176.25 196.75C176.099 196.928 175.947 197.106 175.791 197.289C170.984 203.267 169.995 210.367 168.984 217.74C168.895 218.381 168.805 219.023 168.715 219.665C168.444 221.609 168.179 223.555 167.917 225.5C167.877 225.794 167.837 226.088 167.796 226.391C166.945 232.709 166.161 239.032 165.476 245.37C165.145 248.417 164.783 251.46 164.404 254.501C163.468 262.025 162.7 269.561 161.962 277.106C161.482 281.991 160.951 286.871 160.417 291.75C160.142 291.75 159.867 291.75 159.583 291.75C159.129 288.29 158.716 284.833 158.385 281.359C158.013 277.482 157.537 273.619 157.056 269.753C156.569 265.831 156.127 261.906 155.723 257.974C155.678 257.538 155.633 257.102 155.587 256.653C155.366 254.497 155.148 252.34 154.933 250.183C154.505 245.936 154.006 241.713 153.379 237.49C153.005 234.945 152.691 232.399 152.412 229.842C152.373 229.479 152.333 229.116 152.292 228.742C152.212 228.004 152.131 227.265 152.051 226.526C151.453 221.077 150.838 215.645 149.766 210.266C149.688 209.873 149.611 209.481 149.531 209.076C148.79 205.609 147.677 202.32 145.573 199.432C145.327 199.088 145.081 198.744 144.827 198.389C144.224 197.541 144.224 197.541 143.333 197.167C143.333 196.892 143.333 196.617 143.333 196.333C143.67 196.283 144.007 196.232 144.354 196.18C144.799 196.111 145.244 196.041 145.703 195.969C146.143 195.901 146.583 195.833 147.036 195.764C148.249 195.517 149.287 195.165 150.417 194.667C150.554 193.567 150.692 192.467 150.833 191.333C150.54 191.199 150.247 191.065 149.945 190.927C148.574 190.3 147.204 189.671 145.833 189.042C145.142 188.726 145.142 188.726 144.437 188.404C141.067 186.854 137.745 185.221 134.433 183.553C132.362 182.512 130.287 181.48 128.213 180.446C126.593 179.638 124.974 178.83 123.355 178.022C121.956 177.323 120.557 176.625 119.157 175.928C117.785 175.244 116.413 174.559 115.041 173.874C114.522 173.614 114.002 173.355 113.483 173.097C112.763 172.739 112.045 172.379 111.327 172.02C110.714 171.715 110.714 171.715 110.089 171.403C109.167 170.917 109.167 170.917 108.75 170.5C108.473 167.039 108.937 163.558 109.32 160.122C109.432 159.098 109.539 158.073 109.646 157.048C110.014 153.539 110.413 150.038 110.901 146.543C113.593 127.105 113.348 107.586 113.333 88C113.608 88 113.883 88 114.167 88C114.315 88.2723 114.462 88.5445 114.615 88.825C116.218 91.772 117.841 94.7075 119.479 97.6354C119.734 98.0903 119.988 98.5452 120.25 99.0138C121.717 101.628 123.207 104.226 124.74 106.802C126.061 109.035 127.366 111.275 128.62 113.547C128.84 113.933 128.84 113.933 129.064 114.326C129.621 115.353 130.015 116.098 129.941 117.282C129.38 118.408 128.523 118.968 127.5 119.667C127.225 119.667 126.95 119.667 126.667 119.667C126.669 120.021 126.671 120.376 126.673 120.742C126.685 124.239 126.615 127.725 126.484 131.219C126.446 132.306 126.408 133.392 126.37 134.478C126.311 136.151 126.251 137.825 126.189 139.498C126.071 142.762 125.969 146.026 125.884 149.291C125.85 150.391 125.809 151.488 125.755 152.586C125.678 154.194 125.624 155.802 125.573 157.411C125.543 157.896 125.513 158.381 125.482 158.881C125.381 161.383 125.381 161.383 126.633 163.43C127.593 164.081 128.532 164.597 129.583 165.083C129.843 165.223 130.103 165.363 130.371 165.507C135.155 168.048 140.289 169.822 145.614 170.767C145.917 170.822 146.221 170.878 146.534 170.935C147.272 171.069 148.011 171.202 148.75 171.333C150.18 159.593 151.137 147.831 152.028 136.039C152.314 132.252 152.604 128.465 152.895 124.679C152.995 123.379 153.093 122.078 153.19 120.778C153.557 115.95 154.01 111.141 154.583 106.333C153.785 106.344 153.785 106.344 152.97 106.355C151.662 106.373 150.838 106.373 149.818 105.474C148.525 103.992 148.446 103.275 148.333 101.333C148.553 100.263 148.8 99.3147 149.141 98.2865C149.236 97.9813 149.331 97.6761 149.43 97.3616C149.642 96.6833 149.856 96.0058 150.073 95.3289C150.422 94.2344 150.759 93.137 151.094 92.0381C153.878 82.9004 156.742 73.7869 159.583 64.6667Z" fill="#FBFBFB"/>
</svg>
